<?xml version="1.0" standalone="no"?>
<!DOCTYPE svg PUBLIC "-//W3C//DTD SVG 20010904//EN"
 "http://www.w3.org/TR/2001/REC-SVG-20010904/DTD/svg10.dtd">
<svg version="1.0" xmlns="http://www.w3.org/2000/svg"
 width="473.000000pt" height="251.000000pt" viewBox="0 0 473.000000 251.000000"
 preserveAspectRatio="xMidYMid meet">
<metadata>
Created by potrace 1.15, written by Peter Selinger 2001-2017
</metadata>
<g transform="translate(0.000000,251.000000) scale(0.100000,-0.100000)"
fill="#FFFFFF" stroke="none">
<path d="M2871 2248 c-32 -68 -208 -429 -391 -803 -183 -374 -393 -803 -466
-952 l-133 -273 1389 0 1389 0 -188 383 c-103 210 -339 694 -526 1074 -186
381 -341 691 -344 688 -4 -2 -79 -150 -166 -329 -87 -179 -162 -326 -165 -326
-4 0 -79 149 -168 330 -89 182 -164 330 -167 330 -3 0 -32 -55 -64 -122z m195
-486 l117 -242 -121 -248 c-66 -136 -193 -394 -281 -574 l-160 -328 -246 0
c-135 0 -245 2 -245 4 0 4 287 592 667 1369 75 152 140 274 144 270 4 -5 60
-117 125 -251z m1034 -751 c170 -348 310 -635 310 -637 0 -3 -111 -3 -247 -2
l-247 3 -278 568 c-153 313 -278 572 -278 577 0 4 54 120 121 257 l121 248 94
-190 c52 -104 233 -475 404 -824z m-591 -157 c127 -260 231 -475 231 -478 0
-3 -212 -6 -471 -6 -465 0 -470 0 -464 20 3 11 95 201 204 422 109 222 210
431 226 466 15 35 32 59 36 55 4 -4 112 -220 238 -479z"/>
<path d="M130 1668 c1 -499 3 -658 12 -643 273 483 728 1295 728 1299 0 3
-166 6 -370 6 l-370 0 0 -662z m470 502 c0 -8 -295 -537 -306 -549 -2 -2 -4
122 -4 277 l0 282 155 0 c93 0 155 -4 155 -10z"/>
<path d="M590 1479 l-460 -830 0 -215 0 -214 388 0 c287 0 411 4 482 15 334
51 620 259 770 560 77 154 102 251 107 425 4 110 1 166 -11 233 -76 402 -367
723 -763 840 l-52 16 -461 -830z m615 606 c95 -45 218 -138 283 -212 160 -186
233 -377 233 -611 0 -240 -77 -434 -239 -604 -89 -93 -162 -145 -276 -198
-152 -71 -171 -73 -563 -77 l-353 -4 0 116 0 117 418 754 c229 414 418 754
420 754 1 0 36 -16 77 -35z"/>
</g>
</svg>
